<?xml version="1.0" standalone="no"?>
<!DOCTYPE svg PUBLIC "-//W3C//DTD SVG 20010904//EN"
 "http://www.w3.org/TR/2001/REC-SVG-20010904/DTD/svg10.dtd">
<svg version="1.0" xmlns="http://www.w3.org/2000/svg"
 width="512.000000pt" height="512.000000pt" viewBox="0 0 512.000000 512.000000"
 preserveAspectRatio="xMidYMid meet">
<metadata>
Created by potrace 1.11, written by Peter Selinger 2001-2013
</metadata>
<g transform="translate(0.000000,512.000000) scale(0.100000,-0.100000)"
fill="#000000" stroke="none">
<path d="M2184 5073 c-4 -27 -8 -50 -9 -53 -3 -13 -18 -88 -21 -110 -3 -14
-13 -70 -24 -125 -11 -55 -22 -112 -24 -128 -3 -15 -7 -35 -10 -45 -3 -9 -7
-33 -10 -52 -8 -50 -15 -83 -18 -84 -2 0 -61 -21 -133 -45 -71 -24 -187 -72
-257 -106 l-127 -63 -271 183 -272 184 -256 -257 c-141 -141 -256 -261 -254
-266 3 -9 67 -105 260 -389 l100 -148 -63 -127 c-35 -70 -82 -183 -105 -252
-23 -69 -46 -129 -50 -134 -8 -8 -110 -30 -463 -96 l-177 -34 0 -367 0 -366
33 -6 c17 -3 68 -13 112 -21 44 -8 94 -18 110 -21 17 -3 64 -12 105 -20 41 -8
86 -17 100 -19 14 -3 50 -10 80 -15 30 -6 66 -13 79 -16 13 -2 24 -6 25 -7 0
-2 21 -61 45 -133 24 -71 72 -187 106 -257 l63 -127 -52 -78 c-29 -43 -112
-165 -184 -271 l-131 -194 257 -256 c141 -141 261 -256 266 -254 11 4 496 330
517 348 13 12 34 5 145 -50 71 -35 188 -83 259 -107 72 -24 131 -45 133 -45 2
-1 5 -14 8 -30 3 -16 16 -83 29 -149 13 -66 27 -140 31 -165 4 -25 8 -47 9
-50 1 -3 12 -60 24 -127 l24 -123 367 0 366 0 23 118 c12 64 24 128 27 142 2
14 11 59 19 100 8 41 17 86 19 100 3 14 10 50 16 80 6 30 13 65 14 78 2 12 5
24 7 25 2 1 63 22 134 46 72 24 187 72 257 106 l128 63 207 -140 c115 -78 236
-160 271 -184 l63 -43 259 259 259 260 -53 77 c-29 43 -112 165 -184 271
l-130 193 48 97 c68 139 83 174 125 297 21 61 45 115 52 122 8 6 38 15 66 19
29 4 54 8 57 9 4 1 83 17 100 20 3 0 96 18 208 40 l202 39 0 367 0 367 -47 7
c-27 5 -52 9 -58 10 -42 9 -126 26 -152 30 -61 10 -386 75 -387 78 -1 1 -14
43 -31 92 -37 114 -69 193 -132 323 l-50 103 102 152 c57 84 140 205 184 270
l80 118 -259 259 -258 259 -94 -63 c-51 -35 -173 -117 -270 -183 l-178 -121
-127 63 c-71 34 -187 82 -259 106 l-131 44 -12 50 c-6 28 -13 61 -16 75 -2 14
-9 52 -15 85 -7 33 -13 65 -14 70 -1 6 -17 90 -36 188 l-34 177 -367 0 -367 0
-8 -47z m561 -917 c28 -3 61 -8 75 -11 14 -3 39 -8 55 -11 118 -21 314 -88
391 -133 19 -12 39 -21 44 -21 13 0 166 -100 238 -154 32 -25 98 -84 146 -131
307 -305 476 -721 470 -1155 -1 -74 -4 -148 -7 -165 -3 -16 -9 -50 -12 -75
-42 -300 -222 -650 -450 -875 -39 -39 -130 -119 -150 -133 -6 -4 -26 -19 -46
-34 -202 -151 -484 -260 -756 -294 -76 -9 -261 -10 -343 -2 -63 7 -86 11 -160
25 -53 10 -53 10 -116 27 -563 160 -1003 623 -1129 1191 -28 126 -39 225 -39
350 0 184 17 299 69 470 81 266 211 481 416 684 56 56 105 101 109 101 4 0 18
10 31 21 76 68 279 181 417 234 126 47 308 87 447 97 59 5 243 1 300 -6z"/>
<path d="M2095 3782 c-104 -42 -225 -109 -313 -174 -76 -57 -185 -158 -178
-165 3 -3 232 -6 338 -4 23 1 33 14 86 115 33 63 78 141 99 173 54 81 55 83
46 83 -4 -1 -40 -13 -78 -28z"/>
<path d="M2946 3798 c5 -7 29 -45 55 -85 25 -39 70 -117 98 -172 l52 -101 67
-1 c37 0 120 -1 184 -2 65 -1 118 1 118 4 0 13 -109 112 -184 169 -87 65 -218
136 -320 174 -79 30 -80 30 -70 14z"/>
<path d="M2550 3793 c0 -5 -15 -24 -33 -43 -37 -40 -45 -51 -131 -180 -85
-128 -85 -130 -33 -131 148 -2 450 1 454 4 9 10 -92 166 -181 279 -57 72 -76
89 -76 71z"/>
<path d="M1372 3103 c-31 -61 -80 -213 -91 -283 -7 -36 -14 -75 -16 -87 l-5
-23 265 0 c245 0 265 1 266 18 0 9 2 26 4 37 1 11 6 47 10 80 10 82 15 113 41
223 7 35 14 65 14 68 0 2 -106 4 -235 4 l-235 0 -18 -37z"/>
<path d="M2170 3115 c-27 -70 -56 -213 -75 -357 l-6 -48 472 0 471 0 -6 38
c-3 20 -8 60 -12 87 -7 59 -48 238 -63 278 l-11 27 -380 0 -380 0 -10 -25z"/>
<path d="M3265 3113 c8 -32 12 -49 25 -113 5 -25 11 -54 14 -65 5 -28 23 -171
25 -207 1 -17 21 -18 266 -18 l265 0 -5 23 c-2 12 -6 36 -9 52 -13 88 -60 242
-98 318 l-18 37 -236 0 -236 0 7 -27z"/>
<path d="M1265 2379 c4 -17 8 -40 9 -52 6 -51 50 -198 79 -267 l32 -75 238 -3
c130 -1 237 1 237 5 0 5 -5 26 -10 48 -20 81 -39 182 -46 240 -4 33 -8 67 -10
75 -1 8 -3 25 -3 38 l-1 22 -266 0 -266 0 7 -31z"/>
<path d="M2095 2358 c9 -78 52 -287 68 -333 l14 -40 382 -3 381 -2 10 22 c12
29 47 170 55 223 3 22 10 67 15 100 6 33 10 66 10 73 0 9 -101 12 -471 12
l-470 0 6 -52z"/>
<path d="M3329 2385 c-1 -14 -2 -28 -3 -32 -1 -5 -6 -39 -10 -78 -7 -62 -31
-189 -51 -267 l-7 -28 236 0 235 0 15 29 c40 76 93 246 102 321 2 19 6 45 9
58 l5 22 -265 0 -265 0 -1 -25z"/>
<path d="M1636 1680 l-39 -5 77 -73 c82 -78 198 -158 306 -212 69 -35 190 -83
196 -78 2 2 -19 37 -47 78 -27 41 -75 123 -105 183 l-55 107 -62 1 c-34 0
-100 1 -147 2 -47 1 -103 0 -124 -3z"/>
<path d="M2314 1678 c-15 -24 230 -364 253 -350 38 26 252 336 240 349 -8 7
-489 9 -493 1z"/>
<path d="M3212 1680 l-63 -5 -58 -110 c-32 -60 -79 -143 -104 -182 -26 -40
-45 -73 -42 -73 2 0 34 11 70 25 156 58 334 171 446 281 33 31 57 59 55 61 -6
6 -234 9 -304 3z"/>
</g>
</svg>
